<svg width="27" height="30" viewBox="0 0 27 30" fill="none" xmlns="http://www.w3.org/2000/svg">
<g clip-path="url(#clip0_364_657)">
<path d="M23.2448 5.1581C20.7923 3.31193 17.5597 4.0008 15.5868 6.62169L13.8006 8.99451L6.65597 18.4858C4.68302 21.1067 3.91401 24.8802 6.36653 26.7263" stroke="#7893DC" stroke-width="3" stroke-linecap="round" stroke-linejoin="round"/>
</g>
<path d="M10.2157 19.8053L17.3603 10.314M20.9079 14.8432L22.6941 12.4704C24.667 9.8495 24.2782 6.22812 21.8258 4.38198C19.3733 2.53581 15.7857 3.16394 13.8128 5.78483L12.0266 8.15764M6.66808 15.2761L4.88191 17.6489C2.90896 20.2698 3.29773 23.8911 5.75025 25.7373C8.20273 27.5835 11.7903 26.9554 13.7633 24.3345L15.5494 21.9617" stroke="#7893DC" stroke-width="1.5" stroke-linecap="round" stroke-linejoin="round"/>
<defs>
<clipPath id="clip0_364_657">
<rect width="26.3903" height="11.784" fill="white" transform="translate(0 21.3984) rotate(-53.0289)"/>
</clipPath>
</defs>
</svg>

