<svg width="25" height="25" viewBox="0 0 25 25" fill="none" xmlns="http://www.w3.org/2000/svg">
<g clip-path="url(#clip0_364_644)">
<path d="M8.03016 11.7418C8.12731 10.8198 8.45771 9.92835 8.99876 9.141C9.36812 8.81603 9.50964 8.7087 9.65127 8.62302C9.77327 8.54921 9.88953 8.49263 10.1096 8.38552C10.2376 8.3232 10.4009 8.24378 10.6208 8.1339C10.6466 8.121 10.6733 8.10907 10.7009 8.09808C10.2829 8.42663 9.91293 8.81144 9.60421 9.2433C9.06774 9.99376 8.73383 10.8619 8.63801 11.7713C8.54217 12.6808 8.68823 13.5967 9.06025 14.4362C9.33941 15.0662 9.73825 15.6363 10.2321 16.121C10.0931 16.0229 9.9583 15.9314 9.83287 15.8463L9.82778 15.8428C9.58883 15.6806 9.38714 15.5435 9.20272 15.4008C8.84415 15.1234 8.61756 14.8743 8.47797 14.5593C8.0821 13.666 7.92932 12.6988 8.03016 11.7418Z" stroke="#AEC1F6" stroke-width="2"/>
<path d="M18.9065 3.64802L17.4402 4.66965C17.3647 4.72332 17.2758 4.75679 17.1825 4.76666C17.0892 4.77653 16.9948 4.76245 16.909 4.72584L15.0018 3.96983C14.9178 3.93707 14.844 3.8842 14.7873 3.81625C14.7305 3.7483 14.6928 3.66753 14.6777 3.58161L14.3271 1.65583C14.3067 1.53496 14.2419 1.42514 14.1444 1.34638C14.0469 1.26763 13.9232 1.22517 13.7959 1.22675H11.214C11.0919 1.22361 10.9724 1.26101 10.8757 1.33264C10.7789 1.40428 10.7108 1.50579 10.6827 1.62007L10.1887 3.52031C10.1695 3.59196 10.1345 3.65876 10.0858 3.71608C10.0372 3.77341 9.97624 3.8199 9.90711 3.85235L8.15398 4.7003C8.06954 4.73909 7.97593 4.75573 7.88264 4.74856C7.78936 4.74138 7.69969 4.71064 7.62273 4.65944L6.02898 3.5714C5.92489 3.49896 5.79702 3.46525 5.66906 3.47652C5.5411 3.48779 5.42172 3.54328 5.33305 3.63269L3.39398 5.54315C3.30697 5.62627 3.25254 5.73579 3.23996 5.85311C3.22737 5.97043 3.25739 6.08832 3.32492 6.18678L4.31836 7.65794C4.36336 7.72453 4.39159 7.80029 4.40081 7.87921C4.41003 7.95813 4.39999 8.03803 4.37148 8.11256L3.68086 9.9464C3.65213 10.0241 3.60426 10.0939 3.54136 10.15C3.47845 10.206 3.40237 10.2466 3.31961 10.2682L1.2743 10.8097C1.1584 10.8396 1.05645 10.9064 0.985069 10.9992C0.913683 11.0919 0.877063 11.2052 0.881171 11.3205V13.7418C0.878665 13.8613 0.919821 13.9778 0.997477 14.0712C1.07513 14.1645 1.18437 14.2287 1.30617 14.2526L3.37805 14.6612C3.46136 14.6769 3.53956 14.7114 3.60611 14.7621C3.67266 14.8128 3.72562 14.878 3.76055 14.9524L4.51492 16.5615C4.55 16.6361 4.5659 16.7178 4.56128 16.7996C4.55666 16.8814 4.53165 16.9609 4.48836 17.0314L3.3568 18.8857C3.29465 18.9854 3.26973 19.1025 3.28615 19.2177C3.30257 19.3328 3.35935 19.4392 3.44711 19.5191L5.26398 21.1844C5.35406 21.2688 5.47238 21.3198 5.59787 21.3282C5.72337 21.3366 5.8479 21.3019 5.9493 21.2304L7.4793 20.1627C7.55528 20.1099 7.64445 20.0773 7.73776 20.0684C7.83107 20.0594 7.92519 20.0743 8.01055 20.1117L9.99742 20.9647C10.0787 20.9984 10.15 21.0511 10.2047 21.118C10.2595 21.1849 10.296 21.2639 10.3109 21.3478L10.6615 23.2838C10.6818 23.4047 10.7467 23.5145 10.8442 23.5933C10.9417 23.672 11.0654 23.7145 11.1927 23.7129H13.7905C13.9195 23.7141 14.0444 23.6702 14.1422 23.5894C14.2399 23.5086 14.3038 23.3964 14.3218 23.2736L14.6299 21.2304C14.6426 21.1451 14.6776 21.0644 14.7314 20.9956C14.7853 20.9269 14.8564 20.8723 14.938 20.837L16.8399 20.0095C16.9248 19.9714 17.0187 19.9557 17.112 19.9637C17.2053 19.9718 17.2947 20.0035 17.3712 20.0555L19.0393 21.1384C19.1448 21.2076 19.2726 21.2379 19.3995 21.2238C19.5263 21.2097 19.6436 21.1522 19.7299 21.0618L21.5627 19.1718C21.6478 19.0858 21.6992 18.974 21.7079 18.8556C21.7166 18.7373 21.6822 18.6197 21.6105 18.523L20.5055 16.9906C20.4514 16.917 20.4185 16.8311 20.4101 16.7413C20.4017 16.6516 20.4182 16.5614 20.4577 16.4797L21.244 14.7276C21.277 14.652 21.3286 14.5851 21.3942 14.5326C21.4599 14.4801 21.5377 14.4437 21.6212 14.4263L23.5655 14.0329C23.6873 14.0091 23.7966 13.9449 23.8742 13.8515C23.9519 13.7582 23.9931 13.6416 23.9905 13.5221V11.1826C23.9931 11.0631 23.9519 10.9465 23.8742 10.8532C23.7966 10.7598 23.6873 10.6956 23.5655 10.6718L21.5893 10.2733C21.5023 10.2559 21.4211 10.2178 21.3534 10.1625C21.2856 10.1072 21.2334 10.0364 21.2015 9.95661L20.4312 8.09213C20.3989 8.01368 20.3874 7.92877 20.3976 7.84498C20.4078 7.76119 20.4394 7.68113 20.4896 7.61196L21.6318 6.008C21.7036 5.90817 21.736 5.78704 21.7234 5.6663C21.7107 5.54555 21.6538 5.43309 21.5627 5.34904L19.5918 3.68888C19.5011 3.6052 19.3824 3.55517 19.2569 3.54769C19.1314 3.54021 19.0073 3.57576 18.9065 3.64802Z" fill="#7893DC" stroke="#7893DC" stroke-width="1.5"/>
<path d="M12.4359 17.5476C15.3523 17.5476 17.7165 15.2743 17.7165 12.4701C17.7165 9.66586 15.3523 7.39258 12.4359 7.39258C9.51949 7.39258 7.15527 9.66586 7.15527 12.4701C7.15527 15.2743 9.51949 17.5476 12.4359 17.5476Z" fill="#E7ECFC" stroke="#7893DC" stroke-width="1.5"/>
</g>
<defs>
<clipPath id="clip0_364_644">
<rect width="25" height="25" fill="white"/>
</clipPath>
</defs>
</svg>
