<svg width="1280" height="832" viewBox="0 0 1280 832" fill="none" xmlns="http://www.w3.org/2000/svg">
<g clip-path="url(#clip0_203_2517)">
<rect x="802" y="800" width="76" height="77" fill="#FFE8E4"/>
<path fill-rule="evenodd" clip-rule="evenodd" d="M800.527 873.503L875.542 799.534L874.489 798.466L799.474 872.435L800.527 873.503ZM800.512 836.615L838.027 799.534L836.973 798.467L799.458 835.548L800.512 836.615ZM800.513 809.93L810.793 799.741L809.737 798.676L799.457 808.864L800.513 809.93ZM800.513 818.663L819.115 800.226L818.059 799.161L799.457 817.598L800.513 818.663ZM828.415 800.226L800.513 827.881L799.457 826.816L827.359 799.161L828.415 800.226ZM846.528 800.533L800.513 846.139L799.457 845.073L845.472 799.467L846.528 800.533ZM800.528 855.533L857.043 799.533L855.988 798.467L799.473 854.467L800.528 855.533ZM866.144 799.533L801.528 863.576L800.472 862.51L865.088 798.468L866.144 799.533ZM879.527 804.534L804.527 878.632L803.473 877.565L878.473 803.466L879.527 804.534ZM814.531 879.03L880.031 813.53L878.97 812.47L813.47 877.97L814.531 879.03ZM879.356 822.541L824.031 877.867L822.97 876.806L878.296 821.481L879.356 822.541ZM833.531 877.799L880.056 831.274L878.995 830.214L832.47 876.739L833.531 877.799ZM877.753 843.533L841.528 879.435L840.473 878.37L876.697 842.467L877.753 843.533ZM851.649 878.03L880.454 849.226L879.393 848.165L850.589 876.97L851.649 878.03ZM879.031 859.717L860.237 878.511L859.176 877.451L877.97 858.657L879.031 859.717ZM869.045 879.236L878.836 869.533L877.78 868.467L867.989 878.171L869.045 879.236Z" fill="#E6CDCD"/>
</g>
<g clip-path="url(#clip1_203_2517)">
<rect x="802" y="560" width="76" height="77" fill="#FFE8E4"/>
<path fill-rule="evenodd" clip-rule="evenodd" d="M800.527 633.503L875.542 559.534L874.489 558.466L799.474 632.435L800.527 633.503ZM800.512 596.615L838.027 559.534L836.973 558.467L799.458 595.548L800.512 596.615ZM800.513 569.93L810.793 559.741L809.737 558.676L799.457 568.864L800.513 569.93ZM800.513 578.663L819.115 560.226L818.059 559.161L799.457 577.598L800.513 578.663ZM828.415 560.226L800.513 587.881L799.457 586.816L827.359 559.161L828.415 560.226ZM846.528 560.533L800.513 606.139L799.457 605.073L845.472 559.467L846.528 560.533ZM800.528 615.533L857.043 559.533L855.988 558.467L799.473 614.467L800.528 615.533ZM866.144 559.533L801.528 623.576L800.472 622.51L865.088 558.468L866.144 559.533ZM879.527 564.534L804.527 638.632L803.473 637.565L878.473 563.466L879.527 564.534ZM814.531 639.03L880.031 573.53L878.97 572.47L813.47 637.97L814.531 639.03ZM879.356 582.541L824.031 637.867L822.97 636.806L878.296 581.481L879.356 582.541ZM833.531 637.799L880.056 591.274L878.995 590.214L832.47 636.739L833.531 637.799ZM877.753 603.533L841.528 639.435L840.473 638.37L876.697 602.467L877.753 603.533ZM851.649 638.03L880.454 609.226L879.393 608.165L850.589 636.97L851.649 638.03ZM879.031 619.717L860.237 638.511L859.176 637.451L877.97 618.657L879.031 619.717ZM869.045 639.236L878.836 629.533L877.78 628.467L867.989 638.171L869.045 639.236Z" fill="#E6CDCD"/>
</g>
<g clip-path="url(#clip2_203_2517)">
<rect x="802" y="400" width="76" height="77" fill="#FFE8E4"/>
<path fill-rule="evenodd" clip-rule="evenodd" d="M800.527 473.503L875.542 399.534L874.489 398.466L799.474 472.435L800.527 473.503ZM800.512 436.615L838.027 399.534L836.973 398.467L799.458 435.548L800.512 436.615ZM800.513 409.93L810.793 399.741L809.737 398.676L799.457 408.864L800.513 409.93ZM800.513 418.663L819.115 400.226L818.059 399.161L799.457 417.598L800.513 418.663ZM828.415 400.226L800.513 427.881L799.457 426.816L827.359 399.161L828.415 400.226ZM846.528 400.533L800.513 446.139L799.457 445.073L845.472 399.467L846.528 400.533ZM800.528 455.533L857.043 399.533L855.988 398.467L799.473 454.467L800.528 455.533ZM866.144 399.533L801.528 463.576L800.472 462.51L865.088 398.468L866.144 399.533ZM879.527 404.534L804.527 478.632L803.473 477.565L878.473 403.466L879.527 404.534ZM814.531 479.03L880.031 413.53L878.97 412.47L813.47 477.97L814.531 479.03ZM879.356 422.541L824.031 477.867L822.97 476.806L878.296 421.481L879.356 422.541ZM833.531 477.799L880.056 431.274L878.995 430.214L832.47 476.739L833.531 477.799ZM877.753 443.533L841.528 479.435L840.473 478.37L876.697 442.467L877.753 443.533ZM851.649 478.03L880.454 449.226L879.393 448.165L850.589 476.97L851.649 478.03ZM879.031 459.717L860.237 478.511L859.176 477.451L877.97 458.657L879.031 459.717ZM869.045 479.236L878.836 469.533L877.78 468.467L867.989 478.171L869.045 479.236Z" fill="#E6CDCD"/>
</g>
<g clip-path="url(#clip3_203_2517)">
<rect x="1122" y="400" width="76" height="77" fill="#FFE8E4"/>
<path fill-rule="evenodd" clip-rule="evenodd" d="M1120.53 473.503L1195.54 399.534L1194.49 398.466L1119.47 472.435L1120.53 473.503ZM1120.51 436.615L1158.03 399.534L1156.97 398.467L1119.46 435.548L1120.51 436.615ZM1120.51 409.93L1130.79 399.741L1129.74 398.676L1119.46 408.864L1120.51 409.93ZM1120.51 418.663L1139.11 400.226L1138.06 399.161L1119.46 417.598L1120.51 418.663ZM1148.42 400.226L1120.51 427.881L1119.46 426.816L1147.36 399.161L1148.42 400.226ZM1166.53 400.533L1120.51 446.139L1119.46 445.073L1165.47 399.467L1166.53 400.533ZM1120.53 455.533L1177.04 399.533L1175.99 398.467L1119.47 454.467L1120.53 455.533ZM1186.14 399.533L1121.53 463.576L1120.47 462.51L1185.09 398.468L1186.14 399.533ZM1199.53 404.534L1124.53 478.632L1123.47 477.565L1198.47 403.466L1199.53 404.534ZM1134.53 479.03L1200.03 413.53L1198.97 412.47L1133.47 477.97L1134.53 479.03ZM1199.36 422.541L1144.03 477.867L1142.97 476.806L1198.3 421.481L1199.36 422.541ZM1153.53 477.799L1200.06 431.274L1198.99 430.214L1152.47 476.739L1153.53 477.799ZM1197.75 443.533L1161.53 479.435L1160.47 478.37L1196.7 442.467L1197.75 443.533ZM1171.65 478.03L1200.45 449.226L1199.39 448.165L1170.59 476.97L1171.65 478.03ZM1199.03 459.717L1180.24 478.511L1179.18 477.451L1197.97 458.657L1199.03 459.717ZM1189.05 479.236L1198.84 469.533L1197.78 468.467L1187.99 478.171L1189.05 479.236Z" fill="#E6CDCD"/>
</g>
<g clip-path="url(#clip4_203_2517)">
<rect x="882" y="240" width="76" height="77" fill="#FFE8E4"/>
<path fill-rule="evenodd" clip-rule="evenodd" d="M880.527 313.503L955.542 239.534L954.489 238.466L879.474 312.435L880.527 313.503ZM880.512 276.615L918.027 239.534L916.973 238.467L879.458 275.548L880.512 276.615ZM880.513 249.93L890.793 239.741L889.737 238.676L879.457 248.864L880.513 249.93ZM880.513 258.663L899.115 240.226L898.059 239.161L879.457 257.598L880.513 258.663ZM908.415 240.226L880.513 267.881L879.457 266.816L907.359 239.161L908.415 240.226ZM926.528 240.533L880.513 286.139L879.457 285.073L925.472 239.467L926.528 240.533ZM880.528 295.533L937.043 239.533L935.988 238.467L879.473 294.467L880.528 295.533ZM946.144 239.533L881.528 303.576L880.472 302.51L945.088 238.468L946.144 239.533ZM959.527 244.534L884.527 318.632L883.473 317.565L958.473 243.466L959.527 244.534ZM894.531 319.03L960.031 253.53L958.97 252.47L893.47 317.97L894.531 319.03ZM959.356 262.541L904.031 317.867L902.97 316.806L958.296 261.481L959.356 262.541ZM913.531 317.799L960.056 271.274L958.995 270.214L912.47 316.739L913.531 317.799ZM957.753 283.533L921.528 319.435L920.473 318.37L956.697 282.467L957.753 283.533ZM931.649 318.03L960.454 289.226L959.393 288.165L930.589 316.97L931.649 318.03ZM959.031 299.717L940.237 318.511L939.176 317.451L957.97 298.657L959.031 299.717ZM949.045 319.236L958.836 309.533L957.78 308.467L947.989 318.171L949.045 319.236Z" fill="#E6CDCD"/>
</g>
<g clip-path="url(#clip5_203_2517)">
<rect x="882" y="80" width="76" height="77" fill="#FFE8E4"/>
<path fill-rule="evenodd" clip-rule="evenodd" d="M880.527 153.503L955.542 79.5339L954.489 78.4658L879.474 152.435L880.527 153.503ZM880.512 116.615L918.027 79.5338L916.973 78.467L879.458 115.548L880.512 116.615ZM880.513 89.9296L890.793 79.741L889.737 78.6757L879.457 88.8643L880.513 89.9296ZM880.513 98.663L899.115 80.2265L898.059 79.1611L879.457 97.5976L880.513 98.663ZM908.415 80.2265L880.513 107.881L879.457 106.816L907.359 79.1611L908.415 80.2265ZM926.528 80.5327L880.513 126.139L879.457 125.073L925.472 79.4673L926.528 80.5327ZM880.528 135.533L937.043 79.5328L935.988 78.4673L879.473 134.467L880.528 135.533ZM946.144 79.5329L881.528 143.576L880.472 142.51L945.088 78.4675L946.144 79.5329ZM959.527 84.5335L884.527 158.632L883.473 157.565L958.473 83.4665L959.527 84.5335ZM894.531 159.03L960.031 93.5303L958.97 92.4697L893.47 157.97L894.531 159.03ZM959.356 102.541L904.031 157.867L902.97 156.806L958.296 101.481L959.356 102.541ZM913.531 157.799L960.056 111.274L958.995 110.214L912.47 156.739L913.531 157.799ZM957.753 123.533L921.528 159.435L920.473 158.37L956.697 122.467L957.753 123.533ZM931.649 158.03L960.454 129.226L959.393 128.165L930.589 156.97L931.649 158.03ZM959.031 139.717L940.237 158.511L939.176 157.451L957.97 138.657L959.031 139.717ZM949.045 159.236L958.836 149.533L957.78 148.467L947.989 158.171L949.045 159.236Z" fill="#E6CDCD"/>
</g>
<g clip-path="url(#clip6_203_2517)">
<rect x="962" width="76" height="77" fill="#FFE8E4"/>
<path fill-rule="evenodd" clip-rule="evenodd" d="M960.527 73.503L1035.54 -0.466099L1034.49 -1.53418L959.474 72.4349L960.527 73.503ZM960.512 36.615L998.027 -0.466181L996.973 -1.53299L959.458 35.5482L960.512 36.615ZM960.513 9.92964L970.793 -0.25896L969.737 -1.32434L959.457 8.86426L960.513 9.92964ZM960.513 18.663L979.115 0.226461L978.059 -0.838916L959.457 17.5976L960.513 18.663ZM988.415 0.226461L960.513 27.8812L959.457 26.8158L987.359 -0.838916L988.415 0.226461ZM1006.53 0.532691L960.513 46.1388L959.457 45.0734L1005.47 -0.532686L1006.53 0.532691ZM960.528 55.5328L1017.04 -0.467245L1015.99 -1.53275L959.473 54.4673L960.528 55.5328ZM1026.14 -0.4671L961.528 63.5755L960.472 62.5101L1025.09 -1.53248L1026.14 -0.4671ZM1039.53 4.53351L964.527 78.632L963.473 77.5649L1038.47 3.46646L1039.53 4.53351ZM974.531 79.0302L1040.03 13.5303L1038.97 12.4697L973.47 77.9696L974.531 79.0302ZM1039.36 22.5413L984.031 77.8671L982.97 76.8064L1038.3 21.4806L1039.36 22.5413ZM993.531 77.7994L1040.06 31.2745L1038.99 30.2138L992.47 76.7387L993.531 77.7994ZM1037.75 43.5327L1001.53 79.4354L1000.47 78.37L1036.7 42.4673L1037.75 43.5327ZM1011.65 78.0303L1040.45 49.2259L1039.39 48.1652L1010.59 76.9697L1011.65 78.0303ZM1039.03 59.7173L1020.24 78.5113L1019.18 77.4506L1037.97 58.6567L1039.03 59.7173ZM1029.05 79.2361L1038.84 69.5327L1037.78 68.4673L1027.99 78.1707L1029.05 79.2361Z" fill="#E6CDCD"/>
</g>
<g clip-path="url(#clip7_203_2517)">
<rect x="642" width="76" height="77" fill="#FFE8E4"/>
<path fill-rule="evenodd" clip-rule="evenodd" d="M640.527 73.503L715.542 -0.466099L714.489 -1.53418L639.474 72.4349L640.527 73.503ZM640.512 36.615L678.027 -0.466181L676.973 -1.53299L639.458 35.5482L640.512 36.615ZM640.513 9.92964L650.793 -0.25896L649.737 -1.32434L639.457 8.86426L640.513 9.92964ZM640.513 18.663L659.115 0.226461L658.059 -0.838916L639.457 17.5976L640.513 18.663ZM668.415 0.226461L640.513 27.8812L639.457 26.8158L667.359 -0.838916L668.415 0.226461ZM686.528 0.532691L640.513 46.1388L639.457 45.0734L685.472 -0.532686L686.528 0.532691ZM640.528 55.5328L697.043 -0.467245L695.988 -1.53275L639.473 54.4673L640.528 55.5328ZM706.144 -0.4671L641.528 63.5755L640.472 62.5101L705.088 -1.53248L706.144 -0.4671ZM719.527 4.53351L644.527 78.632L643.473 77.5649L718.473 3.46646L719.527 4.53351ZM654.531 79.0302L720.031 13.5303L718.97 12.4697L653.47 77.9696L654.531 79.0302ZM719.356 22.5413L664.031 77.8671L662.97 76.8064L718.296 21.4806L719.356 22.5413ZM673.531 77.7994L720.056 31.2745L718.995 30.2138L672.47 76.7387L673.531 77.7994ZM717.753 43.5327L681.528 79.4354L680.473 78.37L716.697 42.4673L717.753 43.5327ZM691.649 78.0303L720.454 49.2259L719.393 48.1652L690.589 76.9697L691.649 78.0303ZM719.031 59.7173L700.237 78.5113L699.176 77.4506L717.97 58.6567L719.031 59.7173ZM709.045 79.2361L718.836 69.5327L717.78 68.4673L707.989 78.1707L709.045 79.2361Z" fill="#E6CDCD"/>
</g>
<g clip-path="url(#clip8_203_2517)">
<rect x="482" y="80" width="76" height="77" fill="#FFE8E4"/>
<path fill-rule="evenodd" clip-rule="evenodd" d="M480.527 153.503L555.542 79.5339L554.489 78.4658L479.473 152.435L480.527 153.503ZM480.512 116.615L518.027 79.5338L516.972 78.467L479.457 115.548L480.512 116.615ZM480.512 89.9296L490.792 79.741L489.736 78.6757L479.457 88.8643L480.512 89.9296ZM480.512 98.663L499.114 80.2265L498.058 79.1611L479.457 97.5976L480.512 98.663ZM508.415 80.2265L480.512 107.881L479.457 106.816L507.359 79.1611L508.415 80.2265ZM526.527 80.5327L480.513 126.139L479.457 125.073L525.471 79.4673L526.527 80.5327ZM480.528 135.533L537.043 79.5328L535.987 78.4673L479.472 134.467L480.528 135.533ZM546.144 79.5329L481.528 143.576L480.472 142.51L545.088 78.4675L546.144 79.5329ZM559.527 84.5335L484.527 158.632L483.473 157.565L558.473 83.4665L559.527 84.5335ZM494.53 159.03L560.03 93.5303L558.97 92.4697L493.47 157.97L494.53 159.03ZM559.356 102.541L504.03 157.867L502.969 156.806L558.295 101.481L559.356 102.541ZM513.53 157.799L560.055 111.274L558.994 110.214L512.47 156.739L513.53 157.799ZM557.752 123.533L521.528 159.435L520.472 158.37L556.696 122.467L557.752 123.533ZM531.649 158.03L560.453 129.226L559.393 128.165L530.588 156.97L531.649 158.03ZM559.03 139.717L540.236 158.511L539.176 157.451L557.969 138.657L559.03 139.717ZM549.045 159.236L558.835 149.533L557.779 148.467L547.989 158.171L549.045 159.236Z" fill="#E6CDCD"/>
</g>
<g clip-path="url(#clip9_203_2517)">
<rect x="482" y="240" width="76" height="77" fill="#FFE8E4"/>
<path fill-rule="evenodd" clip-rule="evenodd" d="M480.527 313.503L555.542 239.534L554.489 238.466L479.473 312.435L480.527 313.503ZM480.512 276.615L518.027 239.534L516.972 238.467L479.457 275.548L480.512 276.615ZM480.512 249.93L490.792 239.741L489.736 238.676L479.457 248.864L480.512 249.93ZM480.512 258.663L499.114 240.226L498.058 239.161L479.457 257.598L480.512 258.663ZM508.415 240.226L480.512 267.881L479.457 266.816L507.359 239.161L508.415 240.226ZM526.527 240.533L480.513 286.139L479.457 285.073L525.471 239.467L526.527 240.533ZM480.528 295.533L537.043 239.533L535.987 238.467L479.472 294.467L480.528 295.533ZM546.144 239.533L481.528 303.576L480.472 302.51L545.088 238.468L546.144 239.533ZM559.527 244.534L484.527 318.632L483.473 317.565L558.473 243.466L559.527 244.534ZM494.53 319.03L560.03 253.53L558.97 252.47L493.47 317.97L494.53 319.03ZM559.356 262.541L504.03 317.867L502.969 316.806L558.295 261.481L559.356 262.541ZM513.53 317.799L560.055 271.274L558.994 270.214L512.47 316.739L513.53 317.799ZM557.752 283.533L521.528 319.435L520.472 318.37L556.696 282.467L557.752 283.533ZM531.649 318.03L560.453 289.226L559.393 288.165L530.588 316.97L531.649 318.03ZM559.03 299.717L540.236 318.511L539.176 317.451L557.969 298.657L559.03 299.717ZM549.045 319.236L558.835 309.533L557.779 308.467L547.989 318.171L549.045 319.236Z" fill="#E6CDCD"/>
</g>
<g clip-path="url(#clip10_203_2517)">
<rect x="642" y="480" width="76" height="77" fill="#FFE8E4"/>
<path fill-rule="evenodd" clip-rule="evenodd" d="M640.527 553.503L715.542 479.534L714.489 478.466L639.474 552.435L640.527 553.503ZM640.512 516.615L678.027 479.534L676.973 478.467L639.458 515.548L640.512 516.615ZM640.513 489.93L650.793 479.741L649.737 478.676L639.457 488.864L640.513 489.93ZM640.513 498.663L659.115 480.226L658.059 479.161L639.457 497.598L640.513 498.663ZM668.415 480.226L640.513 507.881L639.457 506.816L667.359 479.161L668.415 480.226ZM686.528 480.533L640.513 526.139L639.457 525.073L685.472 479.467L686.528 480.533ZM640.528 535.533L697.043 479.533L695.988 478.467L639.473 534.467L640.528 535.533ZM706.144 479.533L641.528 543.576L640.472 542.51L705.088 478.468L706.144 479.533ZM719.527 484.534L644.527 558.632L643.473 557.565L718.473 483.466L719.527 484.534ZM654.531 559.03L720.031 493.53L718.97 492.47L653.47 557.97L654.531 559.03ZM719.356 502.541L664.031 557.867L662.97 556.806L718.296 501.481L719.356 502.541ZM673.531 557.799L720.056 511.274L718.995 510.214L672.47 556.739L673.531 557.799ZM717.753 523.533L681.528 559.435L680.473 558.37L716.697 522.467L717.753 523.533ZM691.649 558.03L720.454 529.226L719.393 528.165L690.589 556.97L691.649 558.03ZM719.031 539.717L700.237 558.511L699.176 557.451L717.97 538.657L719.031 539.717ZM709.045 559.236L718.836 549.533L717.78 548.467L707.989 558.171L709.045 559.236Z" fill="#E6CDCD"/>
</g>
<g clip-path="url(#clip11_203_2517)">
<rect x="562" y="640" width="76" height="77" fill="#FFE8E4"/>
<path fill-rule="evenodd" clip-rule="evenodd" d="M560.527 713.503L635.542 639.534L634.489 638.466L559.474 712.435L560.527 713.503ZM560.512 676.615L598.027 639.534L596.973 638.467L559.458 675.548L560.512 676.615ZM560.513 649.93L570.793 639.741L569.737 638.676L559.457 648.864L560.513 649.93ZM560.513 658.663L579.115 640.226L578.059 639.161L559.457 657.598L560.513 658.663ZM588.415 640.226L560.513 667.881L559.457 666.816L587.359 639.161L588.415 640.226ZM606.528 640.533L560.513 686.139L559.457 685.073L605.472 639.467L606.528 640.533ZM560.528 695.533L617.043 639.533L615.988 638.467L559.473 694.467L560.528 695.533ZM626.144 639.533L561.528 703.576L560.472 702.51L625.088 638.468L626.144 639.533ZM639.527 644.534L564.527 718.632L563.473 717.565L638.473 643.466L639.527 644.534ZM574.531 719.03L640.031 653.53L638.97 652.47L573.47 717.97L574.531 719.03ZM639.356 662.541L584.031 717.867L582.97 716.806L638.296 661.481L639.356 662.541ZM593.531 717.799L640.056 671.274L638.995 670.214L592.47 716.739L593.531 717.799ZM637.753 683.533L601.528 719.435L600.473 718.37L636.697 682.467L637.753 683.533ZM611.649 718.03L640.454 689.226L639.393 688.165L610.589 716.97L611.649 718.03ZM639.031 699.717L620.237 718.511L619.176 717.451L637.97 698.657L639.031 699.717ZM629.045 719.236L638.836 709.533L637.78 708.467L627.989 718.171L629.045 719.236Z" fill="#E6CDCD"/>
</g>
<g clip-path="url(#clip12_203_2517)">
<rect x="402" y="640" width="76" height="77" fill="#FFE8E4"/>
<path fill-rule="evenodd" clip-rule="evenodd" d="M400.527 713.503L475.542 639.534L474.489 638.466L399.473 712.435L400.527 713.503ZM400.512 676.615L438.027 639.534L436.972 638.467L399.457 675.548L400.512 676.615ZM400.512 649.93L410.792 639.741L409.736 638.676L399.457 648.864L400.512 649.93ZM400.512 658.663L419.114 640.226L418.058 639.161L399.457 657.598L400.512 658.663ZM428.415 640.226L400.512 667.881L399.457 666.816L427.359 639.161L428.415 640.226ZM446.527 640.533L400.513 686.139L399.457 685.073L445.471 639.467L446.527 640.533ZM400.528 695.533L457.043 639.533L455.987 638.467L399.472 694.467L400.528 695.533ZM466.144 639.533L401.528 703.576L400.472 702.51L465.088 638.468L466.144 639.533ZM479.527 644.534L404.527 718.632L403.473 717.565L478.473 643.466L479.527 644.534ZM414.53 719.03L480.03 653.53L478.97 652.47L413.47 717.97L414.53 719.03ZM479.356 662.541L424.03 717.867L422.969 716.806L478.295 661.481L479.356 662.541ZM433.53 717.799L480.055 671.274L478.994 670.214L432.47 716.739L433.53 717.799ZM477.752 683.533L441.528 719.435L440.472 718.37L476.696 682.467L477.752 683.533ZM451.649 718.03L480.453 689.226L479.393 688.165L450.588 716.97L451.649 718.03ZM479.03 699.717L460.236 718.511L459.176 717.451L477.969 698.657L479.03 699.717ZM469.045 719.236L478.835 709.533L477.779 708.467L467.989 718.171L469.045 719.236Z" fill="#E6CDCD"/>
</g>
<g clip-path="url(#clip13_203_2517)">
<rect x="322" y="480" width="76" height="77" fill="#FFE8E4"/>
<path fill-rule="evenodd" clip-rule="evenodd" d="M320.527 553.503L395.542 479.534L394.489 478.466L319.473 552.435L320.527 553.503ZM320.512 516.615L358.027 479.534L356.972 478.467L319.457 515.548L320.512 516.615ZM320.512 489.93L330.792 479.741L329.736 478.676L319.457 488.864L320.512 489.93ZM320.512 498.663L339.114 480.226L338.058 479.161L319.457 497.598L320.512 498.663ZM348.415 480.226L320.512 507.881L319.457 506.816L347.359 479.161L348.415 480.226ZM366.527 480.533L320.513 526.139L319.457 525.073L365.471 479.467L366.527 480.533ZM320.528 535.533L377.043 479.533L375.987 478.467L319.472 534.467L320.528 535.533ZM386.144 479.533L321.528 543.576L320.472 542.51L385.088 478.468L386.144 479.533ZM399.527 484.534L324.527 558.632L323.473 557.565L398.473 483.466L399.527 484.534ZM334.53 559.03L400.03 493.53L398.97 492.47L333.47 557.97L334.53 559.03ZM399.356 502.541L344.03 557.867L342.969 556.806L398.295 501.481L399.356 502.541ZM353.53 557.799L400.055 511.274L398.994 510.214L352.47 556.739L353.53 557.799ZM397.752 523.533L361.528 559.435L360.472 558.37L396.696 522.467L397.752 523.533ZM371.649 558.03L400.453 529.226L399.393 528.165L370.588 556.97L371.649 558.03ZM399.03 539.717L380.236 558.511L379.176 557.451L397.969 538.657L399.03 539.717ZM389.045 559.236L398.835 549.533L397.779 548.467L387.989 558.171L389.045 559.236Z" fill="#E6CDCD"/>
</g>
<g clip-path="url(#clip14_203_2517)">
<rect x="402" y="400" width="76" height="77" fill="#FFE8E4"/>
<path fill-rule="evenodd" clip-rule="evenodd" d="M400.527 473.503L475.542 399.534L474.489 398.466L399.473 472.435L400.527 473.503ZM400.512 436.615L438.027 399.534L436.972 398.467L399.457 435.548L400.512 436.615ZM400.512 409.93L410.792 399.741L409.736 398.676L399.457 408.864L400.512 409.93ZM400.512 418.663L419.114 400.226L418.058 399.161L399.457 417.598L400.512 418.663ZM428.415 400.226L400.512 427.881L399.457 426.816L427.359 399.161L428.415 400.226ZM446.527 400.533L400.513 446.139L399.457 445.073L445.471 399.467L446.527 400.533ZM400.528 455.533L457.043 399.533L455.987 398.467L399.472 454.467L400.528 455.533ZM466.144 399.533L401.528 463.576L400.472 462.51L465.088 398.468L466.144 399.533ZM479.527 404.534L404.527 478.632L403.473 477.565L478.473 403.466L479.527 404.534ZM414.53 479.03L480.03 413.53L478.97 412.47L413.47 477.97L414.53 479.03ZM479.356 422.541L424.03 477.867L422.969 476.806L478.295 421.481L479.356 422.541ZM433.53 477.799L480.055 431.274L478.994 430.214L432.47 476.739L433.53 477.799ZM477.752 443.533L441.528 479.435L440.472 478.37L476.696 442.467L477.752 443.533ZM451.649 478.03L480.453 449.226L479.393 448.165L450.588 476.97L451.649 478.03ZM479.03 459.717L460.236 478.511L459.176 477.451L477.969 458.657L479.03 459.717ZM469.045 479.236L478.835 469.533L477.779 468.467L467.989 478.171L469.045 479.236Z" fill="#E6CDCD"/>
</g>
<g clip-path="url(#clip15_203_2517)">
<rect x="242" y="240" width="76" height="77" fill="#FFE8E4"/>
<path fill-rule="evenodd" clip-rule="evenodd" d="M240.527 313.503L315.542 239.534L314.489 238.466L239.473 312.435L240.527 313.503ZM240.512 276.615L278.027 239.534L276.972 238.467L239.457 275.548L240.512 276.615ZM240.512 249.93L250.792 239.741L249.736 238.676L239.457 248.864L240.512 249.93ZM240.512 258.663L259.114 240.226L258.058 239.161L239.457 257.598L240.512 258.663ZM268.415 240.226L240.512 267.881L239.457 266.816L267.359 239.161L268.415 240.226ZM286.527 240.533L240.513 286.139L239.457 285.073L285.471 239.467L286.527 240.533ZM240.528 295.533L297.043 239.533L295.987 238.467L239.472 294.467L240.528 295.533ZM306.144 239.533L241.528 303.576L240.472 302.51L305.088 238.468L306.144 239.533ZM319.527 244.534L244.527 318.632L243.473 317.565L318.473 243.466L319.527 244.534ZM254.53 319.03L320.03 253.53L318.97 252.47L253.47 317.97L254.53 319.03ZM319.356 262.541L264.03 317.867L262.969 316.806L318.295 261.481L319.356 262.541ZM273.53 317.799L320.055 271.274L318.994 270.214L272.47 316.739L273.53 317.799ZM317.752 283.533L281.528 319.435L280.472 318.37L316.696 282.467L317.752 283.533ZM291.649 318.03L320.453 289.226L319.393 288.165L290.588 316.97L291.649 318.03ZM319.03 299.717L300.236 318.511L299.176 317.451L317.969 298.657L319.03 299.717ZM309.045 319.236L318.835 309.533L317.779 308.467L307.989 318.171L309.045 319.236Z" fill="#E6CDCD"/>
</g>
<g clip-path="url(#clip16_203_2517)">
<rect x="162" y="400" width="76" height="77" fill="#FFE8E4"/>
<path fill-rule="evenodd" clip-rule="evenodd" d="M160.527 473.503L235.542 399.534L234.489 398.466L159.473 472.435L160.527 473.503ZM160.512 436.615L198.027 399.534L196.972 398.467L159.457 435.548L160.512 436.615ZM160.512 409.93L170.792 399.741L169.736 398.676L159.457 408.864L160.512 409.93ZM160.512 418.663L179.114 400.226L178.058 399.161L159.457 417.598L160.512 418.663ZM188.415 400.226L160.512 427.881L159.457 426.816L187.359 399.161L188.415 400.226ZM206.527 400.533L160.513 446.139L159.457 445.073L205.471 399.467L206.527 400.533ZM160.528 455.533L217.043 399.533L215.987 398.467L159.472 454.467L160.528 455.533ZM226.144 399.533L161.528 463.576L160.472 462.51L225.088 398.468L226.144 399.533ZM239.527 404.534L164.527 478.632L163.473 477.565L238.473 403.466L239.527 404.534ZM174.53 479.03L240.03 413.53L238.97 412.47L173.47 477.97L174.53 479.03ZM239.356 422.541L184.03 477.867L182.969 476.806L238.295 421.481L239.356 422.541ZM193.53 477.799L240.055 431.274L238.994 430.214L192.47 476.739L193.53 477.799ZM237.752 443.533L201.528 479.435L200.472 478.37L236.696 442.467L237.752 443.533ZM211.649 478.03L240.453 449.226L239.393 448.165L210.588 476.97L211.649 478.03ZM239.03 459.717L220.236 478.511L219.176 477.451L237.969 458.657L239.03 459.717ZM229.045 479.236L238.835 469.533L237.779 468.467L227.989 478.171L229.045 479.236Z" fill="#E6CDCD"/>
</g>
<g clip-path="url(#clip17_203_2517)">
<rect x="2" y="480" width="76" height="77" fill="#FFE8E4"/>
<path fill-rule="evenodd" clip-rule="evenodd" d="M0.526594 553.503L75.5417 479.534L74.4885 478.466L-0.526594 552.435L0.526594 553.503ZM0.51174 516.615L38.0269 479.534L36.9724 478.467L-0.542732 515.548L0.51174 516.615ZM0.512465 489.93L10.7923 479.741L9.73637 478.676L-0.543457 488.864L0.512465 489.93ZM0.512465 498.663L19.1141 480.226L18.0581 479.161L-0.543457 497.598L0.512465 498.663ZM28.4149 480.226L0.512465 507.881L-0.543457 506.816L27.3589 479.161L28.4149 480.226ZM46.5272 480.533L0.512775 526.139L-0.543147 525.073L45.4713 479.467L46.5272 480.533ZM0.527848 535.533L57.043 479.533L55.9872 478.467L-0.527945 534.467L0.527848 535.533ZM66.1438 479.533L1.52776 543.576L0.471833 542.51L65.0879 478.468L66.1438 479.533ZM79.5269 484.534L4.52691 558.632L3.47268 557.565L78.4727 483.466L79.5269 484.534ZM14.5303 559.03L80.0303 493.53L78.9697 492.47L13.4697 557.97L14.5303 559.03ZM79.3559 502.541L24.0301 557.867L22.9694 556.806L78.2952 501.481L79.3559 502.541ZM33.5302 557.799L80.0551 511.274L78.9944 510.214L32.4696 556.739L33.5302 557.799ZM77.7521 523.533L41.528 559.435L40.472 558.37L76.6962 522.467L77.7521 523.533ZM51.6489 558.03L80.4535 529.226L79.3928 528.165L50.5883 556.97L51.6489 558.03ZM79.0301 539.717L60.2362 558.511L59.1755 557.451L77.9695 538.657L79.0301 539.717ZM69.0448 559.236L78.8352 549.533L77.7792 548.467L67.9889 558.171L69.0448 559.236Z" fill="#E6CDCD"/>
</g>
<g clip-path="url(#clip18_203_2517)">
<rect x="162" y="560" width="76" height="77" fill="#FFE8E4"/>
<path fill-rule="evenodd" clip-rule="evenodd" d="M160.527 633.503L235.542 559.534L234.489 558.466L159.473 632.435L160.527 633.503ZM160.512 596.615L198.027 559.534L196.972 558.467L159.457 595.548L160.512 596.615ZM160.512 569.93L170.792 559.741L169.736 558.676L159.457 568.864L160.512 569.93ZM160.512 578.663L179.114 560.226L178.058 559.161L159.457 577.598L160.512 578.663ZM188.415 560.226L160.512 587.881L159.457 586.816L187.359 559.161L188.415 560.226ZM206.527 560.533L160.513 606.139L159.457 605.073L205.471 559.467L206.527 560.533ZM160.528 615.533L217.043 559.533L215.987 558.467L159.472 614.467L160.528 615.533ZM226.144 559.533L161.528 623.576L160.472 622.51L225.088 558.468L226.144 559.533ZM239.527 564.534L164.527 638.632L163.473 637.565L238.473 563.466L239.527 564.534ZM174.53 639.03L240.03 573.53L238.97 572.47L173.47 637.97L174.53 639.03ZM239.356 582.541L184.03 637.867L182.969 636.806L238.295 581.481L239.356 582.541ZM193.53 637.799L240.055 591.274L238.994 590.214L192.47 636.739L193.53 637.799ZM237.752 603.533L201.528 639.435L200.472 638.37L236.696 602.467L237.752 603.533ZM211.649 638.03L240.453 609.226L239.393 608.165L210.588 636.97L211.649 638.03ZM239.03 619.717L220.236 638.511L219.176 637.451L237.969 618.657L239.03 619.717ZM229.045 639.236L238.835 629.533L237.779 628.467L227.989 638.171L229.045 639.236Z" fill="#E6CDCD"/>
</g>
<g clip-path="url(#clip19_203_2517)">
<rect x="322" y="800" width="76" height="77" fill="#FFE8E4"/>
<path fill-rule="evenodd" clip-rule="evenodd" d="M320.527 873.503L395.542 799.534L394.489 798.466L319.473 872.435L320.527 873.503ZM320.512 836.615L358.027 799.534L356.972 798.467L319.457 835.548L320.512 836.615ZM320.512 809.93L330.792 799.741L329.736 798.676L319.457 808.864L320.512 809.93ZM320.512 818.663L339.114 800.226L338.058 799.161L319.457 817.598L320.512 818.663ZM348.415 800.226L320.512 827.881L319.457 826.816L347.359 799.161L348.415 800.226ZM366.527 800.533L320.513 846.139L319.457 845.073L365.471 799.467L366.527 800.533ZM320.528 855.533L377.043 799.533L375.987 798.467L319.472 854.467L320.528 855.533ZM386.144 799.533L321.528 863.576L320.472 862.51L385.088 798.468L386.144 799.533ZM399.527 804.534L324.527 878.632L323.473 877.565L398.473 803.466L399.527 804.534ZM334.53 879.03L400.03 813.53L398.97 812.47L333.47 877.97L334.53 879.03ZM399.356 822.541L344.03 877.867L342.969 876.806L398.295 821.481L399.356 822.541ZM353.53 877.799L400.055 831.274L398.994 830.214L352.47 876.739L353.53 877.799ZM397.752 843.533L361.528 879.435L360.472 878.37L396.696 842.467L397.752 843.533ZM371.649 878.03L400.453 849.226L399.393 848.165L370.588 876.97L371.649 878.03ZM399.03 859.717L380.236 878.511L379.176 877.451L397.969 858.657L399.03 859.717ZM389.045 879.236L398.835 869.533L397.779 868.467L387.989 878.171L389.045 879.236Z" fill="#E6CDCD"/>
</g>
<g clip-path="url(#clip20_203_2517)">
<rect x="82" y="240" width="76" height="77" fill="#FFE8E4"/>
<path fill-rule="evenodd" clip-rule="evenodd" d="M80.5266 313.503L155.542 239.534L154.489 238.466L79.4734 312.435L80.5266 313.503ZM80.5117 276.615L118.027 239.534L116.972 238.467L79.4573 275.548L80.5117 276.615ZM80.5125 249.93L90.7923 239.741L89.7364 238.676L79.4565 248.864L80.5125 249.93ZM80.5125 258.663L99.1141 240.226L98.0581 239.161L79.4565 257.598L80.5125 258.663ZM108.415 240.226L80.5125 267.881L79.4565 266.816L107.359 239.161L108.415 240.226ZM126.527 240.533L80.5128 286.139L79.4569 285.073L125.471 239.467L126.527 240.533ZM80.5278 295.533L137.043 239.533L135.987 238.467L79.4721 294.467L80.5278 295.533ZM146.144 239.533L81.5278 303.576L80.4718 302.51L145.088 238.468L146.144 239.533ZM159.527 244.534L84.5269 318.632L83.4727 317.565L158.473 243.466L159.527 244.534ZM94.5303 319.03L160.03 253.53L158.97 252.47L93.4697 317.97L94.5303 319.03ZM159.356 262.541L104.03 317.867L102.969 316.806L158.295 261.481L159.356 262.541ZM113.53 317.799L160.055 271.274L158.994 270.214L112.47 316.739L113.53 317.799ZM157.752 283.533L121.528 319.435L120.472 318.37L156.696 282.467L157.752 283.533ZM131.649 318.03L160.453 289.226L159.393 288.165L130.588 316.97L131.649 318.03ZM159.03 299.717L140.236 318.511L139.176 317.451L157.969 298.657L159.03 299.717ZM149.045 319.236L158.835 309.533L157.779 308.467L147.989 318.171L149.045 319.236Z" fill="#E6CDCD"/>
</g>
<g clip-path="url(#clip21_203_2517)">
<rect x="242" width="76" height="77" fill="#FFE8E4"/>
<path fill-rule="evenodd" clip-rule="evenodd" d="M240.527 73.503L315.542 -0.466099L314.489 -1.53418L239.473 72.4349L240.527 73.503ZM240.512 36.615L278.027 -0.466181L276.972 -1.53299L239.457 35.5482L240.512 36.615ZM240.512 9.92964L250.792 -0.25896L249.736 -1.32434L239.457 8.86426L240.512 9.92964ZM240.512 18.663L259.114 0.226461L258.058 -0.838916L239.457 17.5976L240.512 18.663ZM268.415 0.226461L240.512 27.8812L239.457 26.8158L267.359 -0.838916L268.415 0.226461ZM286.527 0.532691L240.513 46.1388L239.457 45.0734L285.471 -0.532686L286.527 0.532691ZM240.528 55.5328L297.043 -0.467245L295.987 -1.53275L239.472 54.4673L240.528 55.5328ZM306.144 -0.4671L241.528 63.5755L240.472 62.5101L305.088 -1.53248L306.144 -0.4671ZM319.527 4.53351L244.527 78.632L243.473 77.5649L318.473 3.46646L319.527 4.53351ZM254.53 79.0302L320.03 13.5303L318.97 12.4697L253.47 77.9696L254.53 79.0302ZM319.356 22.5413L264.03 77.8671L262.969 76.8064L318.295 21.4806L319.356 22.5413ZM273.53 77.7994L320.055 31.2745L318.994 30.2138L272.47 76.7387L273.53 77.7994ZM317.752 43.5327L281.528 79.4354L280.472 78.37L316.696 42.4673L317.752 43.5327ZM291.649 78.0303L320.453 49.2259L319.393 48.1652L290.588 76.9697L291.649 78.0303ZM319.03 59.7173L300.236 78.5113L299.176 77.4506L317.969 58.6567L319.03 59.7173ZM309.045 79.2361L318.835 69.5327L317.779 68.4673L307.989 78.1707L309.045 79.2361Z" fill="#E6CDCD"/>
</g>
<g clip-path="url(#clip22_203_2517)">
<rect x="722" y="240" width="76" height="77" fill="#FFE8E4"/>
<path fill-rule="evenodd" clip-rule="evenodd" d="M720.527 313.503L795.542 239.534L794.489 238.466L719.474 312.435L720.527 313.503ZM720.512 276.615L758.027 239.534L756.973 238.467L719.458 275.548L720.512 276.615ZM720.513 249.93L730.793 239.741L729.737 238.676L719.457 248.864L720.513 249.93ZM720.513 258.663L739.115 240.226L738.059 239.161L719.457 257.598L720.513 258.663ZM748.415 240.226L720.513 267.881L719.457 266.816L747.359 239.161L748.415 240.226ZM766.528 240.533L720.513 286.139L719.457 285.073L765.472 239.467L766.528 240.533ZM720.528 295.533L777.043 239.533L775.988 238.467L719.473 294.467L720.528 295.533ZM786.144 239.533L721.528 303.576L720.472 302.51L785.088 238.468L786.144 239.533ZM799.527 244.534L724.527 318.632L723.473 317.565L798.473 243.466L799.527 244.534ZM734.531 319.03L800.031 253.53L798.97 252.47L733.47 317.97L734.531 319.03ZM799.356 262.541L744.031 317.867L742.97 316.806L798.296 261.481L799.356 262.541ZM753.531 317.799L800.056 271.274L798.995 270.214L752.47 316.739L753.531 317.799ZM797.753 283.533L761.528 319.435L760.473 318.37L796.697 282.467L797.753 283.533ZM771.649 318.03L800.454 289.226L799.393 288.165L770.589 316.97L771.649 318.03ZM799.031 299.717L780.237 318.511L779.176 317.451L797.97 298.657L799.031 299.717ZM789.045 319.236L798.836 309.533L797.78 308.467L787.989 318.171L789.045 319.236Z" fill="#E6CDCD"/>
</g>
<g clip-path="url(#clip23_203_2517)">
<rect x="642" y="320" width="76" height="77" fill="#FFE8E4"/>
<path fill-rule="evenodd" clip-rule="evenodd" d="M640.527 393.503L715.542 319.534L714.489 318.466L639.474 392.435L640.527 393.503ZM640.512 356.615L678.027 319.534L676.973 318.467L639.458 355.548L640.512 356.615ZM640.513 329.93L650.793 319.741L649.737 318.676L639.457 328.864L640.513 329.93ZM640.513 338.663L659.115 320.226L658.059 319.161L639.457 337.598L640.513 338.663ZM668.415 320.226L640.513 347.881L639.457 346.816L667.359 319.161L668.415 320.226ZM686.528 320.533L640.513 366.139L639.457 365.073L685.472 319.467L686.528 320.533ZM640.528 375.533L697.043 319.533L695.988 318.467L639.473 374.467L640.528 375.533ZM706.144 319.533L641.528 383.576L640.472 382.51L705.088 318.468L706.144 319.533ZM719.527 324.534L644.527 398.632L643.473 397.565L718.473 323.466L719.527 324.534ZM654.531 399.03L720.031 333.53L718.97 332.47L653.47 397.97L654.531 399.03ZM719.356 342.541L664.031 397.867L662.97 396.806L718.296 341.481L719.356 342.541ZM673.531 397.799L720.056 351.274L718.995 350.214L672.47 396.739L673.531 397.799ZM717.753 363.533L681.528 399.435L680.473 398.37L716.697 362.467L717.753 363.533ZM691.649 398.03L720.454 369.226L719.393 368.165L690.589 396.97L691.649 398.03ZM719.031 379.717L700.237 398.511L699.176 397.451L717.97 378.657L719.031 379.717ZM709.045 399.236L718.836 389.533L717.78 388.467L707.989 398.171L709.045 399.236Z" fill="#E6CDCD"/>
</g>
<g clip-path="url(#clip24_203_2517)">
<rect x="1202" y="240" width="76" height="77" fill="#FFE8E4"/>
<path fill-rule="evenodd" clip-rule="evenodd" d="M1200.53 313.503L1275.54 239.534L1274.49 238.466L1199.47 312.435L1200.53 313.503ZM1200.51 276.615L1238.03 239.534L1236.97 238.467L1199.46 275.548L1200.51 276.615ZM1200.51 249.93L1210.79 239.741L1209.74 238.676L1199.46 248.864L1200.51 249.93ZM1200.51 258.663L1219.11 240.226L1218.06 239.161L1199.46 257.598L1200.51 258.663ZM1228.42 240.226L1200.51 267.881L1199.46 266.816L1227.36 239.161L1228.42 240.226ZM1246.53 240.533L1200.51 286.139L1199.46 285.073L1245.47 239.467L1246.53 240.533ZM1200.53 295.533L1257.04 239.533L1255.99 238.467L1199.47 294.467L1200.53 295.533ZM1266.14 239.533L1201.53 303.576L1200.47 302.51L1265.09 238.468L1266.14 239.533ZM1279.53 244.534L1204.53 318.632L1203.47 317.565L1278.47 243.466L1279.53 244.534ZM1214.53 319.03L1280.03 253.53L1278.97 252.47L1213.47 317.97L1214.53 319.03ZM1279.36 262.541L1224.03 317.867L1222.97 316.806L1278.3 261.481L1279.36 262.541ZM1233.53 317.799L1280.06 271.274L1278.99 270.214L1232.47 316.739L1233.53 317.799ZM1277.75 283.533L1241.53 319.435L1240.47 318.37L1276.7 282.467L1277.75 283.533ZM1251.65 318.03L1280.45 289.226L1279.39 288.165L1250.59 316.97L1251.65 318.03ZM1279.03 299.717L1260.24 318.511L1259.18 317.451L1277.97 298.657L1279.03 299.717ZM1269.05 319.236L1278.84 309.533L1277.78 308.467L1267.99 318.171L1269.05 319.236Z" fill="#E6CDCD"/>
</g>
<g clip-path="url(#clip25_203_2517)">
<rect x="1122" y="720" width="76" height="77" fill="#FFE8E4"/>
<path fill-rule="evenodd" clip-rule="evenodd" d="M1120.53 793.503L1195.54 719.534L1194.49 718.466L1119.47 792.435L1120.53 793.503ZM1120.51 756.615L1158.03 719.534L1156.97 718.467L1119.46 755.548L1120.51 756.615ZM1120.51 729.93L1130.79 719.741L1129.74 718.676L1119.46 728.864L1120.51 729.93ZM1120.51 738.663L1139.11 720.226L1138.06 719.161L1119.46 737.598L1120.51 738.663ZM1148.42 720.226L1120.51 747.881L1119.46 746.816L1147.36 719.161L1148.42 720.226ZM1166.53 720.533L1120.51 766.139L1119.46 765.073L1165.47 719.467L1166.53 720.533ZM1120.53 775.533L1177.04 719.533L1175.99 718.467L1119.47 774.467L1120.53 775.533ZM1186.14 719.533L1121.53 783.576L1120.47 782.51L1185.09 718.468L1186.14 719.533ZM1199.53 724.534L1124.53 798.632L1123.47 797.565L1198.47 723.466L1199.53 724.534ZM1134.53 799.03L1200.03 733.53L1198.97 732.47L1133.47 797.97L1134.53 799.03ZM1199.36 742.541L1144.03 797.867L1142.97 796.806L1198.3 741.481L1199.36 742.541ZM1153.53 797.799L1200.06 751.274L1198.99 750.214L1152.47 796.739L1153.53 797.799ZM1197.75 763.533L1161.53 799.435L1160.47 798.37L1196.7 762.467L1197.75 763.533ZM1171.65 798.03L1200.45 769.226L1199.39 768.165L1170.59 796.97L1171.65 798.03ZM1199.03 779.717L1180.24 798.511L1179.18 797.451L1197.97 778.657L1199.03 779.717ZM1189.05 799.236L1198.84 789.533L1197.78 788.467L1187.99 798.171L1189.05 799.236Z" fill="#E6CDCD"/>
</g>
<g clip-path="url(#clip26_203_2517)">
<rect x="1202" y="640" width="76" height="77" fill="#FFE8E4"/>
<path fill-rule="evenodd" clip-rule="evenodd" d="M1200.53 713.503L1275.54 639.534L1274.49 638.466L1199.47 712.435L1200.53 713.503ZM1200.51 676.615L1238.03 639.534L1236.97 638.467L1199.46 675.548L1200.51 676.615ZM1200.51 649.93L1210.79 639.741L1209.74 638.676L1199.46 648.864L1200.51 649.93ZM1200.51 658.663L1219.11 640.226L1218.06 639.161L1199.46 657.598L1200.51 658.663ZM1228.42 640.226L1200.51 667.881L1199.46 666.816L1227.36 639.161L1228.42 640.226ZM1246.53 640.533L1200.51 686.139L1199.46 685.073L1245.47 639.467L1246.53 640.533ZM1200.53 695.533L1257.04 639.533L1255.99 638.467L1199.47 694.467L1200.53 695.533ZM1266.14 639.533L1201.53 703.576L1200.47 702.51L1265.09 638.468L1266.14 639.533ZM1279.53 644.534L1204.53 718.632L1203.47 717.565L1278.47 643.466L1279.53 644.534ZM1214.53 719.03L1280.03 653.53L1278.97 652.47L1213.47 717.97L1214.53 719.03ZM1279.36 662.541L1224.03 717.867L1222.97 716.806L1278.3 661.481L1279.36 662.541ZM1233.53 717.799L1280.06 671.274L1278.99 670.214L1232.47 716.739L1233.53 717.799ZM1277.75 683.533L1241.53 719.435L1240.47 718.37L1276.7 682.467L1277.75 683.533ZM1251.65 718.03L1280.45 689.226L1279.39 688.165L1250.59 716.97L1251.65 718.03ZM1279.03 699.717L1260.24 718.511L1259.18 717.451L1277.97 698.657L1279.03 699.717ZM1269.05 719.236L1278.84 709.533L1277.78 708.467L1267.99 718.171L1269.05 719.236Z" fill="#E6CDCD"/>
</g>
<g clip-path="url(#clip27_203_2517)">
<rect x="1202" y="800" width="76" height="77" fill="#FFE8E4"/>
<path fill-rule="evenodd" clip-rule="evenodd" d="M1200.53 873.503L1275.54 799.534L1274.49 798.466L1199.47 872.435L1200.53 873.503ZM1200.51 836.615L1238.03 799.534L1236.97 798.467L1199.46 835.548L1200.51 836.615ZM1200.51 809.93L1210.79 799.741L1209.74 798.676L1199.46 808.864L1200.51 809.93ZM1200.51 818.663L1219.11 800.226L1218.06 799.161L1199.46 817.598L1200.51 818.663ZM1228.42 800.226L1200.51 827.881L1199.46 826.816L1227.36 799.161L1228.42 800.226ZM1246.53 800.533L1200.51 846.139L1199.46 845.073L1245.47 799.467L1246.53 800.533ZM1200.53 855.533L1257.04 799.533L1255.99 798.467L1199.47 854.467L1200.53 855.533ZM1266.14 799.533L1201.53 863.576L1200.47 862.51L1265.09 798.468L1266.14 799.533ZM1279.53 804.534L1204.53 878.632L1203.47 877.565L1278.47 803.466L1279.53 804.534ZM1214.53 879.03L1280.03 813.53L1278.97 812.47L1213.47 877.97L1214.53 879.03ZM1279.36 822.541L1224.03 877.867L1222.97 876.806L1278.3 821.481L1279.36 822.541ZM1233.53 877.799L1280.06 831.274L1278.99 830.214L1232.47 876.739L1233.53 877.799ZM1277.75 843.533L1241.53 879.435L1240.47 878.37L1276.7 842.467L1277.75 843.533ZM1251.65 878.03L1280.45 849.226L1279.39 848.165L1250.59 876.97L1251.65 878.03ZM1279.03 859.717L1260.24 878.511L1259.18 877.451L1277.97 858.657L1279.03 859.717ZM1269.05 879.236L1278.84 869.533L1277.78 868.467L1267.99 878.171L1269.05 879.236Z" fill="#E6CDCD"/>
</g>
<g clip-path="url(#clip28_203_2517)">
<rect x="882" y="720" width="76" height="77" fill="#FFE8E4"/>
<path fill-rule="evenodd" clip-rule="evenodd" d="M880.527 793.503L955.542 719.534L954.489 718.466L879.474 792.435L880.527 793.503ZM880.512 756.615L918.027 719.534L916.973 718.467L879.458 755.548L880.512 756.615ZM880.513 729.93L890.793 719.741L889.737 718.676L879.457 728.864L880.513 729.93ZM880.513 738.663L899.115 720.226L898.059 719.161L879.457 737.598L880.513 738.663ZM908.415 720.226L880.513 747.881L879.457 746.816L907.359 719.161L908.415 720.226ZM926.528 720.533L880.513 766.139L879.457 765.073L925.472 719.467L926.528 720.533ZM880.528 775.533L937.043 719.533L935.988 718.467L879.473 774.467L880.528 775.533ZM946.144 719.533L881.528 783.576L880.472 782.51L945.088 718.468L946.144 719.533ZM959.527 724.534L884.527 798.632L883.473 797.565L958.473 723.466L959.527 724.534ZM894.531 799.03L960.031 733.53L958.97 732.47L893.47 797.97L894.531 799.03ZM959.356 742.541L904.031 797.867L902.97 796.806L958.296 741.481L959.356 742.541ZM913.531 797.799L960.056 751.274L958.995 750.214L912.47 796.739L913.531 797.799ZM957.753 763.533L921.528 799.435L920.473 798.37L956.697 762.467L957.753 763.533ZM931.649 798.03L960.454 769.226L959.393 768.165L930.589 796.97L931.649 798.03ZM959.031 779.717L940.237 798.511L939.176 797.451L957.97 778.657L959.031 779.717ZM949.045 799.236L958.836 789.533L957.78 788.467L947.989 798.171L949.045 799.236Z" fill="#E6CDCD"/>
</g>
<path d="M1279.56 478.333H0.444336" stroke="#FFB6B6" stroke-opacity="0.5" stroke-width="4"/>
<path d="M0.444336 558.333H1279.56" stroke="#FFB6B6" stroke-opacity="0.5" stroke-width="4"/>
<path d="M1279.56 638.333H0.444336" stroke="#FFB6B6" stroke-opacity="0.5" stroke-width="4"/>
<path d="M0.444336 718.333H1279.56" stroke="#FFB6B6" stroke-opacity="0.5" stroke-width="4"/>
<path d="M1279.56 798.333H0.444336" stroke="#FFB6B6" stroke-opacity="0.5" stroke-width="4"/>
<path d="M160 -1.6665V908.556" stroke="#FFB6B6" stroke-opacity="0.5" stroke-width="4"/>
<path d="M400 880L400 -2" stroke="#FFB6B6" stroke-opacity="0.5" stroke-width="4"/>
<path d="M480 -2L480 880" stroke="#FFB6B6" stroke-opacity="0.5" stroke-width="4"/>
<path d="M560 -2L560 878" stroke="#FFB6B6" stroke-opacity="0.5" stroke-width="4"/>
<path d="M800 -2L800 880" stroke="#FFB6B6" stroke-opacity="0.5" stroke-width="4"/>
<path d="M880 880L880 -2" stroke="#FFB6B6" stroke-opacity="0.5" stroke-width="4"/>
<path d="M960 -2L960 880" stroke="#FFB6B6" stroke-opacity="0.5" stroke-width="4"/>
<path d="M1040 880L1040 -2" stroke="#FFB6B6" stroke-opacity="0.5" stroke-width="4"/>
<path d="M1120 -2L1120 880" stroke="#FFB6B6" stroke-opacity="0.5" stroke-width="4"/>
<path d="M1200 880L1200 -2" stroke="#FFB6B6" stroke-opacity="0.5" stroke-width="4"/>
<path d="M1280 37.5V920.777M0 951.333L6.10352e-05 75.1665" stroke="#FFB6B6" stroke-opacity="0.5" stroke-width="4"/>
<path d="M0 78.3335H1279.56" stroke="#FFB6B6" stroke-opacity="0.5" stroke-width="4"/>
<path d="M0.339844 158.333H1279.56" stroke="#FFB6B6" stroke-opacity="0.5" stroke-width="4"/>
<path d="M0.369141 238.333H1279.56" stroke="#FFB6B6" stroke-opacity="0.5" stroke-width="4"/>
<path d="M1279.56 318.333H0.444336" stroke="#FFB6B6" stroke-opacity="0.5" stroke-width="4"/>
<path d="M0.444336 398.333H1279.56" stroke="#FFB6B6" stroke-opacity="0.5" stroke-width="4"/>
<path d="M720 880L720 -2" stroke="#FFB6B6" stroke-opacity="0.5" stroke-width="4"/>
<path d="M640 880L640 -2" stroke="#FFB6B6" stroke-opacity="0.5" stroke-width="4"/>
<path d="M240 880L240 -2" stroke="#FFB6B6" stroke-opacity="0.5" stroke-width="4"/>
<path d="M320 -2L320 880" stroke="#FFB6B6" stroke-opacity="0.5" stroke-width="4"/>
<path d="M80.4443 -3V909" stroke="#FFB6B6" stroke-opacity="0.5" stroke-width="4"/>
<defs>
<clipPath id="clip0_203_2517">
<rect width="76" height="77" fill="white" transform="translate(802 800)"/>
</clipPath>
<clipPath id="clip1_203_2517">
<rect width="76" height="77" fill="white" transform="translate(802 560)"/>
</clipPath>
<clipPath id="clip2_203_2517">
<rect width="76" height="77" fill="white" transform="translate(802 400)"/>
</clipPath>
<clipPath id="clip3_203_2517">
<rect width="76" height="77" fill="white" transform="translate(1122 400)"/>
</clipPath>
<clipPath id="clip4_203_2517">
<rect width="76" height="77" fill="white" transform="translate(882 240)"/>
</clipPath>
<clipPath id="clip5_203_2517">
<rect width="76" height="77" fill="white" transform="translate(882 80)"/>
</clipPath>
<clipPath id="clip6_203_2517">
<rect width="76" height="77" fill="white" transform="translate(962)"/>
</clipPath>
<clipPath id="clip7_203_2517">
<rect width="76" height="77" fill="white" transform="translate(642)"/>
</clipPath>
<clipPath id="clip8_203_2517">
<rect width="76" height="77" fill="white" transform="translate(482 80)"/>
</clipPath>
<clipPath id="clip9_203_2517">
<rect width="76" height="77" fill="white" transform="translate(482 240)"/>
</clipPath>
<clipPath id="clip10_203_2517">
<rect width="76" height="77" fill="white" transform="translate(642 480)"/>
</clipPath>
<clipPath id="clip11_203_2517">
<rect width="76" height="77" fill="white" transform="translate(562 640)"/>
</clipPath>
<clipPath id="clip12_203_2517">
<rect width="76" height="77" fill="white" transform="translate(402 640)"/>
</clipPath>
<clipPath id="clip13_203_2517">
<rect width="76" height="77" fill="white" transform="translate(322 480)"/>
</clipPath>
<clipPath id="clip14_203_2517">
<rect width="76" height="77" fill="white" transform="translate(402 400)"/>
</clipPath>
<clipPath id="clip15_203_2517">
<rect width="76" height="77" fill="white" transform="translate(242 240)"/>
</clipPath>
<clipPath id="clip16_203_2517">
<rect width="76" height="77" fill="white" transform="translate(162 400)"/>
</clipPath>
<clipPath id="clip17_203_2517">
<rect width="76" height="77" fill="white" transform="translate(2 480)"/>
</clipPath>
<clipPath id="clip18_203_2517">
<rect width="76" height="77" fill="white" transform="translate(162 560)"/>
</clipPath>
<clipPath id="clip19_203_2517">
<rect width="76" height="77" fill="white" transform="translate(322 800)"/>
</clipPath>
<clipPath id="clip20_203_2517">
<rect width="76" height="77" fill="white" transform="translate(82 240)"/>
</clipPath>
<clipPath id="clip21_203_2517">
<rect width="76" height="77" fill="white" transform="translate(242)"/>
</clipPath>
<clipPath id="clip22_203_2517">
<rect width="76" height="77" fill="white" transform="translate(722 240)"/>
</clipPath>
<clipPath id="clip23_203_2517">
<rect width="76" height="77" fill="white" transform="translate(642 320)"/>
</clipPath>
<clipPath id="clip24_203_2517">
<rect width="76" height="77" fill="white" transform="translate(1202 240)"/>
</clipPath>
<clipPath id="clip25_203_2517">
<rect width="76" height="77" fill="white" transform="translate(1122 720)"/>
</clipPath>
<clipPath id="clip26_203_2517">
<rect width="76" height="77" fill="white" transform="translate(1202 640)"/>
</clipPath>
<clipPath id="clip27_203_2517">
<rect width="76" height="77" fill="white" transform="translate(1202 800)"/>
</clipPath>
<clipPath id="clip28_203_2517">
<rect width="76" height="77" fill="white" transform="translate(882 720)"/>
</clipPath>
</defs>
</svg>

