<svg width="101" height="164" viewBox="0 0 101 164" fill="none" xmlns="http://www.w3.org/2000/svg">
<path d="M94.9635 164.029C89.9341 162.051 77.7737 146.987 70.6868 138.959C63.5999 130.931 52.5212 124.96 47.439 116.914C42.3567 108.868 37.2391 96.7766 49.1259 80.489C61.0126 64.2014 77.1117 71.1386 81.1211 71.1031C84.016 71.0775 94.2672 78.127 100.442 82.6862M46.4151 -0.398663C46.4945 8.7032 46.5764 18.0873 24.6462 32.1588C16.0896 37.6491 7.35618 45.6014 0.0274235 50.528M24.128 -0.398658C22.0982 12.5117 10.0534 23.2963 0.0274229 29.7545M63.5951 -0.398658C56.3602 24.6277 39.5492 39.3323 32.7973 47.2575C25.8516 55.4102 7.95075 71.7511 1.99854 78.8835C1.22706 79.808 0.575523 81.611 0.0274233 84.0639M80.0637 -0.398656C79.735 5.31724 80.0133 12.9599 85.7179 23.5268C89.9134 31.2986 95.6927 36.6837 100.442 39.9747M100.442 55.849C96.3026 53.4048 89.441 48.6709 85.8944 43.7532C80.821 36.7183 81.8233 36.7094 71.7558 31.7416C61.6884 26.7738 57.7761 37.9338 51.8151 44.0549C45.8541 50.1761 38.9348 61.3627 29.0174 73.5873C19.1 85.8119 14.1237 89.9015 11.2756 108.132C8.52681 125.726 20.6994 141.304 39.7633 164.029M100.442 69.0479C91.9824 64.0974 75.8682 51.7782 69.9189 50.9744C62.8937 50.0252 52.0093 66.3039 47.0418 71.4049C42.0742 76.5059 33.1592 88.7216 31.2781 102.898C29.397 117.074 36.4839 125.102 43.6238 139.199C48.1019 148.04 59.4476 157.815 67.8645 164.029M100.442 97.4091C100.104 97.0216 99.7514 96.6273 99.3837 96.2263C89.2633 85.1906 60.1868 84.4367 55.2811 96.6169C50.3754 108.797 78.6172 128.775 84.6489 130.744C88.676 132.059 95.8291 139.546 100.442 144.905M100.442 111.8C94.1251 107.68 85.6731 103.207 81.4124 104.477C74.4137 106.561 84.5253 116.586 88.5611 119.584C90.8955 121.319 96.1745 124.19 100.442 126.399M19.9164 164.029L-0.0883074 144.905" stroke="#AEC1F6" stroke-width="2" stroke-linecap="round" stroke-linejoin="round"/>
</svg>
