<svg width="99" height="150" viewBox="0 0 99 150" fill="none" xmlns="http://www.w3.org/2000/svg">
<mask id="mask0_494_9407" style="mask-type:alpha" maskUnits="userSpaceOnUse" x="0" y="0" width="99" height="159">
<rect y="159" width="159" height="99" rx="12" transform="rotate(-90 0 159)" fill="#E7ECFC"/>
</mask>
<g mask="url(#mask0_494_9407)">
<path d="M34.7839 20.6078C41.0001 11.1483 47.0587 -11.0364 49.3109 -20.9463L-10.8242 -6.08142V68.5807C-7.55845 64.0762 0.459565 53.5132 6.40551 47.297C13.8379 39.5267 27.0136 32.4321 34.7839 20.6078Z" fill="#AEC1F6"/>
<path d="M63.162 96.9604C71.2701 88.8523 78.8154 66.6815 68.9053 52.028C64.3802 45.337 60.7972 30.0667 52.689 39.1888C44.5809 48.3109 26.6755 61.4879 19.9188 96.9604C13.162 132.433 55.0539 105.069 63.162 96.9604Z" fill="#AEC1F6"/>
<path d="M0.324457 121.959C-3.7296 117.567 -6.77014 105.518 -8.12149 98.6485L-16.9053 137.162L17.5542 181.757L107.419 162.5L111.811 81.0809L102.014 67.9053C98.7479 68.1305 89.8347 72.0385 86.1353 87.4999C82.2979 103.538 75.6623 109.797 66.8785 117.905C58.0947 126.013 38.5001 138.851 22.2839 134.797C6.0677 130.743 4.37851 126.351 0.324457 121.959Z" fill="#AEC1F6"/>
<path d="M81.0678 11.8255C74.311 7.43321 54.3786 13.5135 39.8515 31.0823C52.3515 18.9189 68.9056 22.9729 73.6353 27.3648C78.3651 31.7567 79.3732 43.9832 80.0542 55.0675C80.4672 61.7886 79.3786 72.2972 79.3786 72.2972C81.7434 59.4581 87.8245 16.2179 81.0678 11.8255Z" fill="#AEC1F6"/>
<path d="M79.3786 72.2972C79.3786 72.2972 72.8921 118.515 42.8921 123.65C12.8921 128.785 7.4191 110.474 8.43262 100.677C9.78397 85.3616 29.2581 42.2252 39.8515 31.0823M79.3786 72.2972C81.7434 59.4581 87.8245 16.2179 81.0678 11.8255C74.311 7.43321 54.3786 13.5135 39.8515 31.0823M79.3786 72.2972C79.3786 72.2972 80.4672 61.7886 80.0542 55.0675C79.3732 43.9832 78.3651 31.7567 73.6353 27.3648C68.9056 22.9729 52.3515 18.9189 39.8515 31.0823" stroke="#AEC1F6" stroke-width="2"/>
</g>
</svg>

