<svg width="56" height="56" viewBox="0 0 56 56" fill="none" xmlns="http://www.w3.org/2000/svg">
<path d="M27.5555 6.375C23.2126 6.375 18.9671 7.66283 15.3561 10.0756C11.7451 12.4885 8.93063 15.9179 7.26866 19.9302C5.60668 23.9426 5.17183 28.3577 6.0191 32.6172C6.86637 36.8767 8.9577 40.7893 12.0286 43.8602C15.0996 46.9311 19.0122 49.0225 23.2717 49.8697C27.5312 50.717 31.9462 50.2822 35.9586 48.6202C39.971 46.9582 43.4004 44.1438 45.8132 40.5327C48.226 36.9217 49.5138 32.6763 49.5138 28.3333C49.507 22.5117 47.1913 16.9305 43.0748 12.814C38.9583 8.69749 33.3771 6.38184 27.5555 6.375ZM27.5555 39.0972C25.4266 39.0972 23.3455 38.4659 21.5754 37.2832C19.8053 36.1004 18.4257 34.4193 17.611 32.4525C16.7963 30.4857 16.5831 28.3214 16.9984 26.2334C17.4138 24.1454 18.4389 22.2275 19.9443 20.7221C21.4496 19.2168 23.3676 18.1916 25.4556 17.7763C27.5436 17.3609 29.7078 17.5741 31.6747 18.3888C33.6415 19.2035 35.3226 20.5831 36.5054 22.3532C37.6881 24.1234 38.3194 26.2044 38.3194 28.3333C38.316 31.187 37.1808 33.9229 35.163 35.9408C33.1451 37.9587 30.4092 39.0938 27.5555 39.0972ZM36.031 18.0301C33.9874 16.3423 31.4855 15.3046 28.8472 15.0507V9.00139C33.0855 9.28243 37.1127 10.954 40.3043 13.7569L36.031 18.0301ZM26.2638 15.0507C23.6255 15.3046 21.1236 16.3423 19.08 18.0301L14.8068 13.7569C17.9983 10.954 22.0255 9.28243 26.2638 9.00139V15.0507ZM17.2523 19.8578C15.5644 21.9014 14.5268 24.4034 14.2729 27.0417H8.22357C8.50413 22.8032 10.1758 18.7759 12.9791 15.5846L17.2523 19.8578ZM14.2729 29.625C14.5268 32.2633 15.5644 34.7652 17.2523 36.8088L12.9791 41.0821C10.1758 37.8908 8.50413 33.8634 8.22357 29.625H14.2729ZM19.08 38.6365C21.1236 40.3244 23.6255 41.3621 26.2638 41.616V47.6653C22.0255 47.3842 17.9983 45.7127 14.8068 42.9098L19.08 38.6365ZM28.8472 41.616C31.4855 41.3621 33.9874 40.3244 36.031 38.6365L40.3043 42.9098C37.1127 45.7127 33.0855 47.3842 28.8472 47.6653V41.616ZM37.8587 36.8088C39.5466 34.7652 40.5842 32.2633 40.8382 29.625H46.8875C46.6069 33.8634 44.9353 37.8908 42.132 41.0821L37.8587 36.8088ZM40.8382 27.0417C40.5842 24.4034 39.5466 21.9014 37.8587 19.8578L42.132 15.5846C44.9353 18.7759 46.6069 22.8032 46.8875 27.0417H40.8382Z" fill="#7893DC"/>
</svg>

